<svg width="104" height="104" viewBox="0 0 104 104" fill="none" xmlns="http://www.w3.org/2000/svg">
<g filter="url(#filter0_i_534_62)">
<rect width="104" height="104" rx="25" fill="#F4F6FF"/>
</g>
<path fill-rule="evenodd" clip-rule="evenodd" d="M51.9074 33C77.1619 32.9969 88.3137 46.3562 86.6424 50.3988C85.5731 52.9857 84.5055 55.5743 83.4379 58.163C82.3713 60.7492 81.303 63.3375 80.233 65.9251C79.4243 67.8807 77.5643 69.7413 76.1491 69.4789C68.1685 69.479 60.0363 69.407 51.9029 69.479C43.7694 69.407 35.7537 69.479 27.6566 69.4789C26.2414 69.7413 24.3815 67.8807 23.5727 65.9251C22.5023 63.3375 21.4344 60.7492 20.3678 58.163C19.3002 55.5743 18.2326 52.9857 17.163 50.3988C15.492 46.3562 26.6435 32.9969 51.898 33H51.9071H51.9074ZM49.7247 43.8866H54.081C54.4188 43.8866 54.6952 44.163 54.6952 44.5008V48.6398H58.8342C59.172 48.6398 59.4484 48.9165 59.4484 49.2543V53.6103C59.4484 53.9481 59.172 54.2244 58.8342 54.2244H54.6952V58.3638C54.6952 58.7017 54.4188 58.978 54.081 58.978H49.7247C49.3869 58.978 49.1105 58.7017 49.1105 58.3638V54.2244H44.9715C44.6337 54.2244 44.3574 53.9481 44.3574 53.6103V49.2543C44.3574 48.9165 44.6337 48.6398 44.9715 48.6398H49.1105V44.5008C49.1105 44.163 49.3869 43.8866 49.7247 43.8866ZM51.9029 40.4844C57.9493 40.4844 62.851 45.386 62.851 51.4325C62.851 57.4789 57.9493 62.3803 51.9029 62.3803C45.8564 62.3803 40.9547 57.4789 40.9547 51.4325C40.9547 45.386 45.8564 40.4844 51.9029 40.4844Z" fill="#5E67AC"/>
<defs>
<filter id="filter0_i_534_62" x="0" y="0" width="107" height="108" filterUnits="userSpaceOnUse" color-interpolation-filters="sRGB">
<feFlood flood-opacity="0" result="BackgroundImageFix"/>
<feBlend mode="normal" in="SourceGraphic" in2="BackgroundImageFix" result="shape"/>
<feColorMatrix in="SourceAlpha" type="matrix" values="0 0 0 0 0 0 0 0 0 0 0 0 0 0 0 0 0 0 127 0" result="hardAlpha"/>
<feOffset dx="3" dy="4"/>
<feGaussianBlur stdDeviation="4.9"/>
<feComposite in2="hardAlpha" operator="arithmetic" k2="-1" k3="1"/>
<feColorMatrix type="matrix" values="0 0 0 0 0.368627 0 0 0 0 0.403922 0 0 0 0 0.67451 0 0 0 0.17 0"/>
<feBlend mode="normal" in2="shape" result="effect1_innerShadow_534_62"/>
</filter>
</defs>
</svg>
