<svg width="185" height="185" viewBox="0 0 185 185" fill="none" xmlns="http://www.w3.org/2000/svg">
<path opacity="0.2" d="M156.094 69.375V138.75C156.094 140.283 155.485 141.754 154.4 142.838C153.316 143.922 151.846 144.531 150.312 144.531H34.6875C33.1542 144.531 31.6837 143.922 30.5995 142.838C29.5153 141.754 28.9062 140.283 28.9062 138.75V69.375H156.094Z" fill="white"/>
<path d="M161.875 34.6875H23.125C20.0584 34.6875 17.1175 35.9057 14.9491 38.0741C12.7807 40.2425 11.5625 43.1834 11.5625 46.25V63.5938C11.5625 66.6603 12.7807 69.6013 14.9491 71.7697C17.1175 73.9381 20.0584 75.1562 23.125 75.1562V138.75C23.125 141.817 24.3432 144.758 26.5116 146.926C28.68 149.094 31.6209 150.312 34.6875 150.312H150.312C153.379 150.312 156.32 149.094 158.488 146.926C160.657 144.758 161.875 141.817 161.875 138.75V75.1562C164.942 75.1562 167.883 73.9381 170.051 71.7697C172.219 69.6013 173.438 66.6603 173.438 63.5938V46.25C173.438 43.1834 172.219 40.2425 170.051 38.0741C167.883 35.9057 164.942 34.6875 161.875 34.6875ZM150.312 138.75H34.6875V75.1562H150.312V138.75ZM161.875 63.5938H23.125V46.25H161.875V63.5938ZM69.375 98.2812C69.375 96.748 69.9841 95.2775 71.0683 94.1933C72.1525 93.1091 73.623 92.5 75.1562 92.5H109.844C111.377 92.5 112.848 93.1091 113.932 94.1933C115.016 95.2775 115.625 96.748 115.625 98.2812C115.625 99.8145 115.016 101.285 113.932 102.369C112.848 103.453 111.377 104.062 109.844 104.062H75.1562C73.623 104.062 72.1525 103.453 71.0683 102.369C69.9841 101.285 69.375 99.8145 69.375 98.2812Z" fill="white"/>
</svg>
