<svg width="208" height="208" viewBox="0 0 208 208" fill="none" xmlns="http://www.w3.org/2000/svg">
<path opacity="0.2" d="M99.5564 141.678H66.377V108.498L141.031 33.8447L174.21 67.0241L99.5564 141.678Z" fill="#F5F5F5"/>
<path d="M99.5564 141.679H66.377V108.499L165.915 8.96094L199.095 42.1403L99.5564 141.679Z" stroke="#F5F5F5" stroke-width="16.5285" stroke-linecap="round" stroke-linejoin="round"/>
<path d="M141.029 33.8447L174.209 67.0241" stroke="#F5F5F5" stroke-width="16.5285" stroke-linecap="round" stroke-linejoin="round"/>
<path d="M190.799 108.498V191.447C190.799 193.647 189.925 195.757 188.37 197.312C186.814 198.868 184.704 199.742 182.504 199.742H16.6074C14.4074 199.742 12.2976 198.868 10.742 197.312C9.18642 195.757 8.3125 193.647 8.3125 191.447V25.5497C8.3125 23.3498 9.18642 21.24 10.742 19.6844C12.2976 18.1288 14.4074 17.2549 16.6074 17.2549H99.5559" stroke="#F5F5F5" stroke-width="16.5285" stroke-linecap="round" stroke-linejoin="round"/>
</svg>
