<svg width="347" height="70" viewBox="0 0 347 70" fill="none" xmlns="http://www.w3.org/2000/svg">
<path d="M90.4963 53.6851L105.462 17.1823H115.735L130.493 53.6851H120.794L117.456 44.8723H103.22L99.8306 53.6851H90.4963ZM105.932 37.7282H114.797L110.416 26.0473L105.932 37.7282ZM144.502 54.2065C141.756 54.2065 139.27 53.5808 137.045 52.3292C134.855 51.0777 133.117 49.3743 131.831 47.2189C130.544 45.0287 129.901 42.5952 129.901 39.9183C129.901 37.2067 130.544 34.7732 131.831 32.6178C133.117 30.4624 134.855 28.7589 137.045 27.5074C139.27 26.2211 141.756 25.578 144.502 25.578C146.762 25.578 148.917 26.0299 150.969 26.9338C153.02 27.8029 154.758 29.0544 156.183 30.6884L151.021 36.0595C150.047 34.947 149.057 34.1474 148.048 33.6607C147.04 33.1392 145.928 32.8785 144.711 32.8785C143.494 32.8785 142.399 33.1914 141.426 33.8172C140.452 34.4082 139.688 35.2425 139.131 36.3202C138.575 37.3631 138.297 38.5625 138.297 39.9183C138.297 41.2394 138.575 42.4387 139.131 43.5164C139.722 44.5594 140.522 45.3937 141.53 46.0195C142.538 46.6105 143.668 46.906 144.92 46.906C146.067 46.906 147.127 46.6626 148.101 46.1759C149.074 45.6892 150.013 44.9418 150.916 43.9336L155.923 49.1483C154.532 50.7475 152.828 51.999 150.812 52.9029C148.796 53.772 146.693 54.2065 144.502 54.2065ZM173.696 54.0501C170.393 54.0501 167.89 53.32 166.186 51.8599C164.518 50.3651 163.683 48.1749 163.683 45.2894V33.1392H158.104V26.0994H163.683V19.0075L172.131 17.1823V26.0994H179.849V33.1392H172.131V43.6207C172.131 44.8375 172.392 45.7066 172.913 46.2281C173.47 46.7148 174.426 46.9581 175.781 46.9581C176.477 46.9581 177.103 46.9234 177.659 46.8538C178.25 46.7495 178.893 46.5931 179.588 46.3845V53.2157C178.823 53.4591 177.85 53.6503 176.668 53.7894C175.486 53.9632 174.495 54.0501 173.696 54.0501ZM183.147 53.6851V26.0994H191.595V53.6851H183.147ZM187.371 23.5443C186.084 23.5443 184.989 23.0923 184.085 22.1884C183.182 21.2846 182.73 20.1895 182.73 18.9032C182.73 17.6169 183.182 16.5218 184.085 15.6179C184.989 14.7141 186.084 14.2621 187.371 14.2621C188.657 14.2621 189.752 14.7141 190.656 15.6179C191.56 16.5218 192.012 17.6169 192.012 18.9032C192.012 20.1895 191.56 21.2846 190.656 22.1884C189.752 23.0923 188.657 23.5443 187.371 23.5443ZM197.212 53.6851V17.1823H205.659L222.242 38.3539V17.1823H230.69V53.6851H222.764L205.659 31.6791V53.6851H197.212ZM247.106 54.2065C244.951 54.2065 243.039 53.7372 241.37 52.7986C239.736 51.8599 238.45 50.5563 237.511 48.8876C236.573 47.1841 236.103 45.2547 236.103 43.0993V26.0994H244.551V41.952C244.551 43.4469 245.003 44.6637 245.907 45.6023C246.846 46.5062 248.062 46.9581 249.557 46.9581C250.635 46.9581 251.591 46.7669 252.425 46.3845C253.26 46.0021 253.955 45.4633 254.511 44.768V26.0994H262.959V53.6851H254.511V51.8078C252.425 53.4069 249.957 54.2065 247.106 54.2065ZM268.191 53.6851V26.0994H276.639V28.8632C277.542 27.7508 278.603 26.9164 279.819 26.3602C281.036 25.7692 282.392 25.4737 283.887 25.4737C285.382 25.5084 286.442 25.7344 287.068 26.1516V33.5043C286.512 33.2262 285.886 33.0176 285.191 32.8785C284.495 32.7395 283.783 32.6699 283.053 32.6699C281.732 32.6699 280.497 32.9828 279.35 33.6086C278.238 34.1996 277.334 35.0513 276.639 36.1638V53.6851H268.191ZM302.107 54.2065C299.5 54.2065 297.084 53.911 294.859 53.32C292.634 52.6943 290.705 51.7904 289.071 50.6084L293.086 44.9244C294.824 45.9673 296.406 46.7322 297.831 47.2189C299.257 47.6708 300.665 47.8968 302.055 47.8968C303.446 47.8968 304.541 47.7056 305.34 47.3232C306.175 46.906 306.592 46.3671 306.592 45.7066C306.592 45.1851 306.366 44.768 305.914 44.4551C305.462 44.1074 304.749 43.8641 303.776 43.725L298.301 42.8907C295.554 42.4735 293.451 41.5696 291.991 40.1791C290.565 38.7537 289.853 36.9112 289.853 34.6515C289.853 32.7742 290.322 31.1751 291.261 29.854C292.234 28.4982 293.607 27.4726 295.38 26.7773C297.153 26.0473 299.274 25.6823 301.742 25.6823C303.759 25.6823 305.758 25.9604 307.739 26.5166C309.721 27.0728 311.563 27.9072 313.267 29.0197L309.251 34.4429C307.757 33.5738 306.331 32.948 304.975 32.5656C303.62 32.1485 302.264 31.9399 300.908 31.9399C299.83 31.9399 298.961 32.1311 298.301 32.5135C297.64 32.8611 297.31 33.3305 297.31 33.9214C297.31 34.4777 297.553 34.9296 298.04 35.2773C298.527 35.5901 299.361 35.8335 300.543 36.0073L306.018 36.8417C308.73 37.2241 310.816 38.128 312.276 39.5533C313.771 40.9439 314.518 42.7169 314.518 44.8723C314.518 46.68 313.979 48.2792 312.902 49.6698C311.824 51.0603 310.346 52.1728 308.469 53.0072C306.627 53.8067 304.506 54.2065 302.107 54.2065ZM331.762 54.2065C328.946 54.2065 326.391 53.5808 324.096 52.3292C321.836 51.043 320.046 49.3221 318.725 47.1667C317.404 45.0113 316.743 42.5952 316.743 39.9183C316.743 37.2415 317.369 34.8253 318.621 32.6699C319.907 30.5145 321.645 28.8111 323.835 27.5595C326.026 26.2733 328.459 25.6301 331.136 25.6301C333.848 25.6301 336.246 26.2906 338.332 27.6117C340.418 28.898 342.052 30.671 343.234 32.9307C344.451 35.1904 345.059 37.7803 345.059 40.7005V42.7864H325.4C325.782 43.6555 326.286 44.4203 326.912 45.0808C327.573 45.7414 328.355 46.2628 329.259 46.6453C330.163 46.9929 331.136 47.1667 332.179 47.1667C333.326 47.1667 334.369 46.9929 335.308 46.6453C336.246 46.2628 337.046 45.7414 337.706 45.0808L343.286 50.0348C341.548 51.4949 339.758 52.5552 337.915 53.2157C336.107 53.8763 334.056 54.2065 331.762 54.2065ZM325.243 36.8938H336.768C336.49 35.9899 336.055 35.2251 335.464 34.5994C334.908 33.9388 334.247 33.4347 333.483 33.0871C332.718 32.7047 331.883 32.5135 330.979 32.5135C330.041 32.5135 329.189 32.6873 328.424 33.035C327.659 33.3826 326.999 33.8867 326.443 34.5472C325.921 35.173 325.521 35.9552 325.243 36.8938Z" fill="#5E67AC"/>
<path fill-rule="evenodd" clip-rule="evenodd" d="M43.3197 10.3835C74.0512 10.3797 87.6215 26.6363 85.5878 31.5557C84.2865 34.7036 82.9874 37.8536 81.6883 41.0037C80.3904 44.1508 79.0904 47.3004 77.7883 50.4492C76.8042 52.8289 74.5409 55.0931 72.8188 54.7738C63.1074 54.7738 53.2115 54.6862 43.3142 54.7738C33.4168 54.6862 23.6627 54.7738 13.8095 54.7738C12.0874 55.0931 9.82411 52.8289 8.83998 50.4492C7.53745 47.3004 6.23789 44.1508 4.94004 41.0037C3.64091 37.8536 2.34177 34.7036 1.04009 31.5557C-0.993203 26.6363 12.5767 10.3797 43.3082 10.3835H43.3193H43.3197ZM40.6636 23.6312H45.9647C46.3758 23.6312 46.7121 23.9675 46.7121 24.3785V29.4152H51.7487C52.1598 29.4152 52.4961 29.7519 52.4961 30.163V35.4637C52.4961 35.8748 52.1598 36.211 51.7487 36.211H46.7121V41.2481C46.7121 41.6592 46.3758 41.9955 45.9647 41.9955H40.6636C40.2525 41.9955 39.9163 41.6592 39.9163 41.2481V36.211H34.8796C34.4685 36.211 34.1322 35.8748 34.1322 35.4637V30.163C34.1322 29.7519 34.4685 29.4152 34.8796 29.4152H39.9163V24.3785C39.9163 23.9675 40.2525 23.6312 40.6636 23.6312ZM43.3142 19.4911C50.6719 19.4911 56.6366 25.4558 56.6366 32.8135C56.6366 40.1713 50.6719 46.1356 43.3142 46.1356C35.9564 46.1356 29.9917 40.1713 29.9917 32.8135C29.9917 25.4558 35.9564 19.4911 43.3142 19.4911Z" fill="#5E67AC"/>
</svg>
