<svg width="70" height="37" viewBox="0 0 70 37" fill="none" xmlns="http://www.w3.org/2000/svg">
<path fill-rule="evenodd" clip-rule="evenodd" d="M34.8619 5.54154e-07C60.0834 -0.00313945 71.2207 13.3387 69.5516 17.3761C68.4836 19.9596 67.4174 22.5449 66.3512 25.1301C65.2861 27.7129 64.2192 30.2979 63.1505 32.8821C62.3428 34.8352 60.4854 36.6934 59.072 36.4313C51.1017 36.4313 42.9802 36.3595 34.8573 36.4313C26.7345 36.3595 18.7293 36.4313 10.6427 36.4313C9.22933 36.6934 7.37184 34.8352 6.56416 32.8821C5.49517 30.2979 4.42861 27.7129 3.36345 25.1301C2.29725 22.5449 1.23104 19.9596 0.162742 17.3761C-1.506 13.3387 9.6309 -0.00313945 34.8525 5.54154e-07H34.8619ZM32.682 10.8724H37.0327C37.37 10.8724 37.646 11.1484 37.646 11.4858V15.6194H41.7797C42.117 15.6194 42.393 15.8957 42.393 16.2331V20.5834C42.393 20.9208 42.117 21.1967 41.7797 21.1967H37.646V25.3307C37.646 25.6681 37.37 25.9441 37.0327 25.9441H32.682C32.3446 25.9441 32.0687 25.6681 32.0687 25.3307V21.1967H27.935C27.5977 21.1967 27.3217 20.9208 27.3217 20.5834V16.2331C27.3217 15.8957 27.5977 15.6194 27.935 15.6194H32.0687V11.4858C32.0687 11.1484 32.3446 10.8724 32.682 10.8724ZM34.8573 7.47463C40.8959 7.47463 45.7912 12.3699 45.7912 18.4084C45.7912 24.447 40.8959 29.3419 34.8573 29.3419C28.8188 29.3419 23.9235 24.447 23.9235 18.4084C23.9235 12.3699 28.8188 7.47463 34.8573 7.47463Z" fill="white"/>
</svg>
