<svg width="284" height="57" viewBox="0 0 284 57" fill="none" xmlns="http://www.w3.org/2000/svg">
<path d="M73.5793 44L85.8621 14.042H94.2931L106.405 44H98.4445L95.7055 36.7673H84.0218L81.24 44H73.5793ZM86.2473 30.9041H93.5228L89.9278 21.3175L86.2473 30.9041ZM117.902 44.428C115.648 44.428 113.608 43.9144 111.782 42.8873C109.985 41.8601 108.558 40.4621 107.503 38.6932C106.447 36.8957 105.919 34.8985 105.919 32.7016C105.919 30.4761 106.447 28.4789 107.503 26.71C108.558 24.941 109.985 23.543 111.782 22.5158C113.608 21.4602 115.648 20.9323 117.902 20.9323C119.757 20.9323 121.526 21.3032 123.209 22.0451C124.893 22.7583 126.319 23.7855 127.489 25.1265L123.252 29.5346C122.453 28.6216 121.64 27.9653 120.813 27.5659C119.985 27.1379 119.072 26.9239 118.074 26.9239C117.075 26.9239 116.176 27.1807 115.377 27.6943C114.579 28.1793 113.951 28.8641 113.494 29.7486C113.038 30.6045 112.81 31.5888 112.81 32.7016C112.81 33.7857 113.038 34.7701 113.494 35.6546C113.979 36.5105 114.636 37.1953 115.463 37.7088C116.29 38.1939 117.218 38.4364 118.245 38.4364C119.186 38.4364 120.057 38.2367 120.855 37.8372C121.654 37.4378 122.425 36.8243 123.167 35.9969L127.275 40.2766C126.134 41.5891 124.736 42.6162 123.081 43.358C121.426 44.0713 119.7 44.428 117.902 44.428ZM141.862 44.2996C139.151 44.2996 137.097 43.7004 135.699 42.5021C134.329 41.2752 133.644 39.4778 133.644 37.1097V27.1379H129.065V21.3603H133.644V15.5399L140.578 14.042V21.3603H146.912V27.1379H140.578V35.7402C140.578 36.7388 140.792 37.452 141.22 37.88C141.676 38.2794 142.461 38.4792 143.573 38.4792C144.144 38.4792 144.658 38.4506 145.114 38.3936C145.599 38.308 146.127 38.1796 146.698 38.0084V43.6148C146.07 43.8145 145.271 43.9715 144.301 44.0856C143.331 44.2283 142.518 44.2996 141.862 44.2996ZM149.618 44V21.3603H156.551V44H149.618ZM153.085 19.2632C152.029 19.2632 151.13 18.8923 150.389 18.1505C149.647 17.4087 149.276 16.51 149.276 15.4543C149.276 14.3986 149.647 13.4999 150.389 12.7581C151.13 12.0163 152.029 11.6454 153.085 11.6454C154.14 11.6454 155.039 12.0163 155.781 12.7581C156.523 13.4999 156.894 14.3986 156.894 15.4543C156.894 16.51 156.523 17.4087 155.781 18.1505C155.039 18.8923 154.14 19.2632 153.085 19.2632ZM161.161 44V14.042H168.094L181.704 31.4176V14.042H188.637V44H182.132L168.094 25.9396V44H161.161ZM202.11 44.428C200.341 44.428 198.772 44.0428 197.403 43.2724C196.062 42.5021 195.006 41.4322 194.236 40.0627C193.465 38.6646 193.08 37.0811 193.08 35.3122V21.3603H200.013V34.3706C200.013 35.5975 200.384 36.5961 201.126 37.3664C201.896 38.1083 202.895 38.4792 204.122 38.4792C205.006 38.4792 205.791 38.3222 206.476 38.0084C207.16 37.6946 207.731 37.2523 208.187 36.6817V21.3603H215.121V44H208.187V42.4593C206.476 43.7717 204.45 44.428 202.11 44.428ZM219.414 44V21.3603H226.347V23.6286C227.089 22.7156 227.959 22.0308 228.958 21.5743C229.957 21.0893 231.069 20.8467 232.296 20.8467C233.523 20.8753 234.393 21.0607 234.907 21.4031V27.4375C234.45 27.2093 233.937 27.0381 233.366 26.9239C232.796 26.8098 232.211 26.7527 231.611 26.7527C230.527 26.7527 229.514 27.0095 228.573 27.5231C227.66 28.0081 226.918 28.7072 226.347 29.6202V44H219.414ZM247.25 44.428C245.11 44.428 243.127 44.1855 241.301 43.7004C239.475 43.1869 237.891 42.445 236.551 41.475L239.846 36.8101C241.272 37.666 242.571 38.2937 243.74 38.6932C244.91 39.0641 246.066 39.2495 247.207 39.2495C248.348 39.2495 249.247 39.0926 249.903 38.7787C250.588 38.4364 250.93 37.9941 250.93 37.452C250.93 37.0241 250.745 36.6817 250.374 36.4249C250.003 36.1396 249.418 35.9399 248.619 35.8257L244.126 35.141C241.872 34.7986 240.145 34.0568 238.947 32.9155C237.777 31.7458 237.192 30.2336 237.192 28.379C237.192 26.8383 237.578 25.5259 238.348 24.4417C239.147 23.329 240.274 22.4873 241.729 21.9167C243.184 21.3175 244.924 21.0179 246.95 21.0179C248.605 21.0179 250.246 21.2462 251.872 21.7027C253.498 22.1592 255.01 22.8439 256.408 23.7569L253.113 28.2079C251.886 27.4946 250.716 26.981 249.604 26.6672C248.491 26.3248 247.378 26.1536 246.265 26.1536C245.381 26.1536 244.668 26.3105 244.126 26.6244C243.584 26.9097 243.312 27.2948 243.312 27.7799C243.312 28.2364 243.512 28.6073 243.912 28.8926C244.311 29.1494 244.996 29.3491 245.966 29.4918L250.46 30.1765C252.685 30.4904 254.397 31.2322 255.595 32.402C256.822 33.5432 257.436 34.9983 257.436 36.7673C257.436 38.2509 256.993 39.5634 256.109 40.7046C255.224 41.8459 254.012 42.7589 252.471 43.4436C250.959 44.0999 249.218 44.428 247.25 44.428ZM271.587 44.428C269.276 44.428 267.179 43.9144 265.296 42.8873C263.442 41.8316 261.972 40.4193 260.888 38.6504C259.804 36.8814 259.262 34.8985 259.262 32.7016C259.262 30.5046 259.775 28.5217 260.802 26.7527C261.858 24.9838 263.285 23.5858 265.082 22.5586C266.88 21.503 268.877 20.9751 271.074 20.9751C273.299 20.9751 275.268 21.5172 276.98 22.6014C278.692 23.6571 280.033 25.1122 281.003 26.9667C282.001 28.8213 282.501 30.9469 282.501 33.3435V35.0554H266.366C266.68 35.7687 267.094 36.3964 267.607 36.9385C268.149 37.4806 268.791 37.9085 269.533 38.2224C270.275 38.5077 271.074 38.6504 271.93 38.6504C272.871 38.6504 273.727 38.5077 274.498 38.2224C275.268 37.9085 275.924 37.4806 276.466 36.9385L281.046 41.0042C279.619 42.2025 278.15 43.0727 276.637 43.6148C275.154 44.1569 273.47 44.428 271.587 44.428ZM266.238 30.2193H275.696C275.468 29.4775 275.111 28.8498 274.626 28.3362C274.169 27.7941 273.627 27.3804 273 27.0951C272.372 26.7813 271.687 26.6244 270.945 26.6244C270.175 26.6244 269.476 26.767 268.848 27.0523C268.221 27.3376 267.679 27.7513 267.222 28.2934C266.794 28.807 266.466 29.449 266.238 30.2193Z" fill="white"/>
<path fill-rule="evenodd" clip-rule="evenodd" d="M34.8619 7.95947C60.0834 7.95633 71.2207 21.2982 69.5516 25.3356C68.4836 27.9191 67.4174 30.5044 66.3512 33.0896C65.2861 35.6724 64.2192 38.2574 63.1505 40.8416C62.3428 42.7947 60.4854 44.6529 59.072 44.3908C51.1017 44.3908 42.9802 44.319 34.8573 44.3908C26.7345 44.319 18.7293 44.3908 10.6427 44.3908C9.22933 44.6529 7.37184 42.7947 6.56416 40.8416C5.49517 38.2574 4.42861 35.6724 3.36345 33.0896C2.29725 30.5044 1.23104 27.9191 0.162741 25.3356C-1.506 21.2982 9.6309 7.95633 34.8525 7.95947H34.8615H34.8619ZM32.682 18.8319H37.0327C37.37 18.8319 37.646 19.1079 37.646 19.4453V23.5789H41.7797C42.117 23.5789 42.393 23.8552 42.393 24.1926V28.5429C42.393 28.8803 42.117 29.1562 41.7797 29.1562H37.646V33.2902C37.646 33.6276 37.37 33.9036 37.0327 33.9036H32.682C32.3446 33.9036 32.0687 33.6276 32.0687 33.2902V29.1562H27.935C27.5977 29.1562 27.3217 28.8803 27.3217 28.5429V24.1926C27.3217 23.8552 27.5977 23.5789 27.935 23.5789H32.0687V19.4453C32.0687 19.1079 32.3446 18.8319 32.682 18.8319ZM34.8573 15.4341C40.8959 15.4341 45.7912 20.3294 45.7912 26.3679C45.7912 32.4065 40.8959 37.3014 34.8573 37.3014C28.8188 37.3014 23.9235 32.4065 23.9235 26.3679C23.9235 20.3294 28.8188 15.4341 34.8573 15.4341Z" fill="white"/>
</svg>
