<svg width="33" height="33" viewBox="0 0 33 33" fill="none" xmlns="http://www.w3.org/2000/svg">
<g clip-path="url(#clip0_632_513)">
<path opacity="0.2" d="M7.26347 13.2327C7.26347 10.8458 8.21167 8.55669 9.89946 6.86889C11.5873 5.1811 13.8764 4.23291 16.2633 4.23291C18.6502 4.23291 20.9393 5.1811 22.6271 6.86889C24.3149 8.55669 25.2631 10.8458 25.2631 13.2327C25.2631 17.7101 26.3006 21.3076 27.1256 22.7325C27.2132 22.8843 27.2594 23.0564 27.2595 23.2316C27.2597 23.4069 27.2138 23.5791 27.1264 23.731C27.0391 23.8829 26.9134 24.0092 26.7618 24.0972C26.6103 24.1852 26.4383 24.2319 26.2631 24.2325H6.2635C6.08847 24.2314 5.91679 24.1845 5.76561 24.0963C5.61444 24.0081 5.48905 23.8817 5.402 23.7299C5.31494 23.5781 5.26927 23.406 5.26953 23.231C5.2698 23.056 5.316 22.8841 5.40351 22.7325C6.22725 21.3076 7.26347 17.7089 7.26347 13.2327Z" fill="#A29EA9"/>
<path d="M12.2617 24.2319C12.2617 25.2928 12.6831 26.3102 13.4333 27.0603C14.1834 27.8104 15.2008 28.2318 16.2616 28.2318C17.3225 28.2318 18.3399 27.8104 19.09 27.0603C19.8401 26.3102 20.2616 25.2928 20.2616 24.2319" stroke="#F4F6FF" stroke-width="2.31614" stroke-linecap="round" stroke-linejoin="round"/>
<path d="M7.26347 13.2327C7.26347 10.8458 8.21167 8.55669 9.89946 6.86889C11.5873 5.1811 13.8764 4.23291 16.2633 4.23291C18.6502 4.23291 20.9393 5.1811 22.6271 6.86889C24.3149 8.55669 25.2631 10.8458 25.2631 13.2327C25.2631 17.7101 26.3006 21.3076 27.1256 22.7325C27.2132 22.8843 27.2594 23.0564 27.2595 23.2316C27.2597 23.4069 27.2138 23.5791 27.1264 23.731C27.0391 23.8829 26.9134 24.0092 26.7618 24.0972C26.6103 24.1852 26.4383 24.2319 26.2631 24.2325H6.2635C6.08847 24.2314 5.91679 24.1845 5.76561 24.0963C5.61444 24.0081 5.48905 23.8817 5.402 23.7299C5.31494 23.5781 5.26927 23.406 5.26953 23.231C5.2698 23.056 5.316 22.8841 5.40351 22.7325C6.22725 21.3076 7.26347 17.7089 7.26347 13.2327Z" stroke="#F4F6FF" stroke-width="2.31614" stroke-linecap="round" stroke-linejoin="round"/>
</g>
<rect x="0.324217" y="0.295409" width="31.8743" height="31.8743" stroke="#5E67AC" stroke-width="0.124997"/>
<defs>
<clipPath id="clip0_632_513">
<rect x="0.261719" y="0.23291" width="31.9993" height="31.9993" fill="white"/>
</clipPath>
</defs>
</svg>
