<svg width="26" height="28" viewBox="0 0 26 28" fill="none" xmlns="http://www.w3.org/2000/svg">
<path opacity="0.2" d="M3.99394 10.9998C3.99394 8.61291 4.94214 6.32378 6.62993 4.63598C8.31772 2.94819 10.6069 2 12.9938 2C15.3807 2 17.6698 2.94819 19.3576 4.63598C21.0454 6.32378 21.9936 8.61291 21.9936 10.9998C21.9936 15.4772 23.031 19.0746 23.856 20.4996C23.9436 20.6514 23.9899 20.8235 23.99 20.9987C23.9902 21.174 23.9443 21.3462 23.8569 21.4981C23.7696 21.65 23.6438 21.7763 23.4923 21.8643C23.3408 21.9523 23.1688 21.999 22.9935 21.9996H2.99396C2.81894 21.9985 2.64726 21.9516 2.49608 21.8634C2.3449 21.7752 2.21952 21.6488 2.13247 21.497C2.04541 21.3452 1.99974 21.1731 2 20.9981C2.00027 20.8231 2.04647 20.6512 2.13398 20.4996C2.95771 19.0746 3.99394 15.476 3.99394 10.9998Z" fill="#A29EA9"/>
<path d="M8.99219 21.999C8.99219 23.0599 9.41361 24.0773 10.1637 24.8274C10.9139 25.5775 11.9313 25.9989 12.9921 25.9989C14.0529 25.9989 15.0703 25.5775 15.8205 24.8274C16.5706 24.0773 16.992 23.0599 16.992 21.999" stroke="#F4F6FF" stroke-width="2.31614" stroke-linecap="round" stroke-linejoin="round"/>
<path d="M3.99394 10.9998C3.99394 8.61291 4.94214 6.32378 6.62993 4.63598C8.31772 2.94819 10.6069 2 12.9938 2C15.3807 2 17.6698 2.94819 19.3576 4.63598C21.0454 6.32378 21.9936 8.61291 21.9936 10.9998C21.9936 15.4772 23.031 19.0746 23.856 20.4996C23.9436 20.6514 23.9899 20.8235 23.99 20.9987C23.9902 21.174 23.9443 21.3462 23.8569 21.4981C23.7696 21.65 23.6438 21.7763 23.4923 21.8643C23.3408 21.9523 23.1688 21.999 22.9935 21.9996H2.99396C2.81894 21.9985 2.64726 21.9516 2.49608 21.8634C2.3449 21.7752 2.21952 21.6488 2.13247 21.497C2.04541 21.3452 1.99974 21.1731 2 20.9981C2.00027 20.8231 2.04647 20.6512 2.13398 20.4996C2.95771 19.0746 3.99394 15.476 3.99394 10.9998Z" stroke="#F4F6FF" stroke-width="2.31614" stroke-linecap="round" stroke-linejoin="round"/>
</svg>
