<svg width="62" height="63" viewBox="0 0 62 63" fill="none" xmlns="http://www.w3.org/2000/svg">
<circle cx="31" cy="31.0828" r="31" fill="#E6E9FF"/>
<path d="M31 17.762C33.0238 17.762 34.9919 18.426 36.6016 19.6526C38.2112 20.8792 39.3733 22.6008 39.9102 24.552C40.447 26.5032 40.3289 28.577 39.5732 30.4543C38.8827 32.1698 37.6934 33.6326 36.167 34.6624C39.4361 35.8587 42.2285 38.185 44.0693 41.3674H44.0684C44.1538 41.5083 44.2106 41.6645 44.2354 41.8274C44.2604 41.9923 44.2529 42.1608 44.2119 42.3225C44.1709 42.4841 44.0976 42.6359 43.9971 42.7688C43.8965 42.9018 43.7704 43.0135 43.626 43.0969C43.4816 43.1803 43.3217 43.2334 43.1562 43.2542C42.9907 43.2749 42.8226 43.2623 42.6621 43.217C42.5016 43.1718 42.352 43.0946 42.2217 42.9905C42.093 42.8877 41.9856 42.7608 41.9062 42.6165V42.6174C39.5972 38.6268 35.5205 36.2483 31 36.2483C26.4795 36.2483 22.4028 38.6268 20.0938 42.6174L20.0928 42.6165C20.0135 42.7606 19.9069 42.8878 19.7783 42.9905C19.648 43.0946 19.4984 43.1718 19.3379 43.217C19.1774 43.2623 19.0093 43.2749 18.8438 43.2542C18.6783 43.2334 18.5184 43.1803 18.374 43.0969C18.2296 43.0135 18.1035 42.9018 18.0029 42.7688C17.9024 42.6359 17.8291 42.4841 17.7881 42.3225C17.7471 42.1608 17.7396 41.9923 17.7646 41.8274C17.7894 41.6645 17.8462 41.5083 17.9316 41.3674H17.9307C19.7713 38.184 22.5631 35.8567 25.832 34.6614C24.3062 33.6317 23.1171 32.1693 22.4268 30.4543C21.6711 28.577 21.553 26.5032 22.0898 24.552C22.6267 22.6008 23.7888 20.8792 25.3984 19.6526C27.0081 18.426 28.9762 17.762 31 17.762ZM32.3154 20.3928C31.0076 20.1327 29.6519 20.2664 28.4199 20.7766C27.1879 21.2869 26.1345 22.1513 25.3936 23.26C24.6526 24.3689 24.2568 25.6734 24.2568 27.0071C24.2589 28.7947 24.9703 30.5086 26.2344 31.7727C27.4985 33.0368 29.2123 33.7483 31 33.7502L31.25 33.7454C32.496 33.6991 33.7066 33.308 34.7461 32.6135C35.855 31.8726 36.7191 30.8193 37.2295 29.5872C37.7399 28.355 37.8735 26.9987 37.6133 25.6907C37.353 24.3829 36.7114 23.1814 35.7686 22.2385C34.8255 21.2955 33.6235 20.653 32.3154 20.3928Z" fill="#6B72AC" stroke="#6B72AC" stroke-width="0.5"/>
</svg>
