<svg width="33" height="32" viewBox="0 0 33 32" fill="none" xmlns="http://www.w3.org/2000/svg">
<path d="M24.2979 14.3428C24.2979 16.2691 23.7266 18.1522 22.6564 19.7539C21.5862 21.3556 20.0651 22.604 18.2854 23.3411C16.5056 24.0783 14.5473 24.2712 12.658 23.8954C10.7687 23.5196 9.0332 22.5919 7.67107 21.2298C6.30894 19.8677 5.38132 18.1322 5.00551 16.2429C4.6297 14.3536 4.82258 12.3952 5.55976 10.6155C6.29694 8.83583 7.5453 7.31469 9.147 6.24447C10.7487 5.17425 12.6318 4.60303 14.5581 4.60303C15.8372 4.60303 17.1037 4.85495 18.2854 5.34442C19.467 5.83389 20.5407 6.55131 21.4452 7.45573C22.3496 8.36015 23.067 9.43386 23.5565 10.6155C24.0459 11.7972 24.2979 13.0637 24.2979 14.3428Z" fill="#6B72AC"/>
<path d="M27.3518 28.8212L27.3518 28.8212C27.4624 28.9318 27.5937 29.0195 27.7381 29.0793L27.821 28.8794L27.7382 29.0793C27.8826 29.1392 28.0375 29.17 28.1939 29.17C28.3503 29.17 28.5052 29.1392 28.6497 29.0793C28.7942 29.0195 28.9255 28.9318 29.036 28.8212C29.1466 28.7106 29.2344 28.5793 29.2942 28.4348C29.3541 28.2903 29.3849 28.1354 29.3849 27.979C29.3849 27.8226 29.3541 27.6678 29.2942 27.5233C29.2344 27.3788 29.1466 27.2475 29.036 27.1369L23.0799 21.1808C24.8018 19.0382 25.6569 16.3242 25.4707 13.577C25.2801 10.7639 24.0122 8.13266 21.9308 6.23059C19.8495 4.32853 17.115 3.30212 14.2962 3.36489C11.4773 3.42766 8.79122 4.57479 6.79663 6.56761C4.80204 8.56044 3.65254 11.2455 3.58728 14.0643C3.52202 16.8831 4.54601 19.6185 6.44623 21.7015C8.34646 23.7845 10.9766 25.0547 13.7895 25.2479C16.5366 25.4365 19.2514 24.5838 21.3955 22.8637L27.3518 28.8212ZM6.00892 14.3431C6.00897 12.6523 6.51037 10.9995 7.44974 9.59362C8.38916 8.18769 9.72438 7.0919 11.2866 6.44482C12.8488 5.79775 14.5677 5.62844 16.2262 5.95832C17.8846 6.2882 19.4079 7.10244 20.6036 8.29809C21.7992 9.49373 22.6134 11.0171 22.9433 12.6755C23.2732 14.3339 23.1039 16.0529 22.4568 17.6151C21.8097 19.1773 20.7139 20.5125 19.308 21.4519C17.9022 22.3913 16.2493 22.8927 14.5585 22.8927C12.2918 22.8902 10.1186 21.9886 8.51581 20.3858C6.913 18.783 6.01143 16.6099 6.00892 14.3431Z" fill="#F4F6FF" stroke="#F4F6FF" stroke-width="0.432878"/>
</svg>
