<svg width="40" height="40" viewBox="0 0 40 40" fill="none" xmlns="http://www.w3.org/2000/svg">
<path opacity="0.2" d="M35.952 16.9938L30.9754 14.1594C30.8754 13.9781 30.7707 13.8016 30.6629 13.6266L30.6442 8.00156C29.0714 6.67424 27.2621 5.65587 25.3114 5L20.3114 7.79531C20.102 7.79531 19.891 7.79531 19.6864 7.79531L14.6864 5C12.7362 5.65801 10.928 6.67851 9.35667 8.00781L9.33167 13.6328C9.2223 13.8078 9.11761 13.9859 9.01917 14.1656L4.04417 16.9938C3.65194 18.9777 3.65194 21.0192 4.04417 23.0031L9.02073 25.8375C9.12073 26.0188 9.22542 26.1953 9.33323 26.3703L9.35198 31.9953C10.925 33.3239 12.7349 34.3434 14.6864 35L19.6864 32.2078C19.8957 32.2078 20.1067 32.2078 20.3114 32.2078L25.3114 35C27.2598 34.3415 29.0665 33.321 30.6364 31.9922L30.6614 26.3672C30.7707 26.1922 30.8754 26.0141 30.9739 25.8344L35.9489 23.0063C36.3425 21.0215 36.3436 18.9789 35.952 16.9938ZM19.9989 26.25C18.7627 26.25 17.5544 25.8834 16.5265 25.1967C15.4987 24.5099 14.6977 23.5338 14.2246 22.3918C13.7516 21.2497 13.6278 19.9931 13.8689 18.7807C14.1101 17.5683 14.7054 16.4547 15.5794 15.5806C16.4535 14.7065 17.5672 14.1112 18.7795 13.8701C19.9919 13.6289 21.2486 13.7527 22.3906 14.2258C23.5327 14.6988 24.5088 15.4999 25.1955 16.5277C25.8823 17.5555 26.2489 18.7639 26.2489 20C26.2489 21.6576 25.5904 23.2473 24.4183 24.4194C23.2462 25.5915 21.6565 26.25 19.9989 26.25Z" fill="white"/>
<path d="M20.0008 12.5003C18.5174 12.5003 17.0674 12.9402 15.834 13.7643C14.6006 14.5884 13.6393 15.7597 13.0717 17.1302C12.504 18.5006 12.3555 20.0086 12.6449 21.4635C12.9343 22.9183 13.6486 24.2547 14.6975 25.3036C15.7464 26.3525 17.0828 27.0668 18.5376 27.3562C19.9925 27.6456 21.5005 27.4971 22.8709 26.9294C24.2414 26.3617 25.4127 25.4004 26.2368 24.1671C27.0609 22.9337 27.5008 21.4837 27.5008 20.0003C27.4987 18.0118 26.7079 16.1054 25.3018 14.6993C23.8957 13.2932 21.9893 12.5024 20.0008 12.5003ZM20.0008 25.0003C19.0119 25.0003 18.0452 24.7071 17.2229 24.1576C16.4007 23.6082 15.7598 22.8273 15.3814 21.9137C15.0029 21.0001 14.9039 19.9947 15.0969 19.0248C15.2898 18.0549 15.766 17.164 16.4653 16.4648C17.1645 15.7655 18.0554 15.2893 19.0253 15.0964C19.9952 14.9034 21.0006 15.0025 21.9142 15.3809C22.8278 15.7593 23.6087 16.4002 24.1581 17.2224C24.7075 18.0447 25.0008 19.0114 25.0008 20.0003C25.0008 21.3264 24.474 22.5981 23.5363 23.5358C22.5986 24.4735 21.3269 25.0003 20.0008 25.0003ZM37.1789 16.7519C37.1441 16.5758 37.0718 16.4094 36.9669 16.2638C36.862 16.1182 36.727 15.9969 36.5711 15.9081L31.9102 13.2519L31.8914 7.99873C31.8908 7.81782 31.851 7.63918 31.7747 7.47516C31.6983 7.31114 31.5873 7.16565 31.4492 7.04873C29.7585 5.61857 27.8115 4.52259 25.7117 3.81905C25.5464 3.76308 25.3711 3.74236 25.1973 3.75824C25.0234 3.77412 24.8548 3.82624 24.7023 3.91123L20.0008 6.53936L15.2945 3.90655C15.142 3.82107 14.9732 3.76856 14.799 3.75241C14.6249 3.73626 14.4493 3.75683 14.2836 3.8128C12.1851 4.52085 10.2402 5.62108 8.55235 7.05498C8.41449 7.17173 8.30357 7.31697 8.22723 7.4807C8.15089 7.64444 8.11095 7.82277 8.11016 8.00342L8.08672 13.2612L3.42579 15.9175C3.26985 16.0063 3.13486 16.1276 3.02998 16.2732C2.9251 16.4187 2.85279 16.5852 2.81797 16.7612C2.3914 18.9048 2.3914 21.1114 2.81797 23.255C2.85279 23.431 2.9251 23.5975 3.02998 23.7431C3.13486 23.8887 3.26985 24.01 3.42579 24.0987L8.08672 26.755L8.10547 32.0097C8.10604 32.1906 8.14587 32.3692 8.22221 32.5332C8.29856 32.6973 8.4096 32.8428 8.54766 32.9597C10.2384 34.3898 12.1854 35.4858 14.2852 36.1894C14.4505 36.2453 14.6258 36.266 14.7996 36.2502C14.9735 36.2343 15.1421 36.1822 15.2945 36.0972L20.0008 33.4612L24.707 36.094C24.8933 36.1978 25.1032 36.2516 25.3164 36.2503C25.4529 36.2502 25.5885 36.2281 25.718 36.1847C27.8159 35.4769 29.7607 34.3778 31.4492 32.9456C31.5871 32.8289 31.698 32.6836 31.7743 32.5199C31.8507 32.3562 31.8906 32.1778 31.8914 31.9972L31.9148 26.7394L36.5758 24.0831C36.7317 23.9943 36.8667 23.873 36.9716 23.7274C37.0765 23.5818 37.1488 23.4154 37.1836 23.2394C37.6078 21.0975 37.6062 18.8931 37.1789 16.7519ZM34.8352 22.2065L30.3711 24.7456C30.1755 24.8568 30.0136 25.0188 29.9023 25.2144C29.8117 25.3706 29.7164 25.5362 29.6195 25.6925C29.4955 25.8895 29.4295 26.1175 29.4289 26.3503L29.4055 31.3894C28.2056 32.3316 26.8688 33.0851 25.4414 33.6237L20.9383 31.1144C20.7513 31.0109 20.541 30.9571 20.3273 30.9581H20.2977C20.1086 30.9581 19.918 30.9581 19.7289 30.9581C19.5053 30.9527 19.2843 31.0066 19.0883 31.1144L14.582 33.63C13.1516 33.0955 11.8111 32.3457 10.607 31.4065L10.5898 26.3753C10.5891 26.142 10.523 25.9136 10.3992 25.7159C10.3023 25.5597 10.207 25.4034 10.118 25.2378C10.0075 25.0392 9.84561 24.874 9.64922 24.7597L5.18047 22.2144C4.94922 20.7516 4.94922 19.2615 5.18047 17.7987L9.63672 15.255C9.83231 15.1438 9.99426 14.9818 10.1055 14.7862C10.1961 14.63 10.2914 14.4644 10.3883 14.3081C10.5123 14.1111 10.5783 13.8831 10.5789 13.6503L10.6023 8.61123C11.8022 7.66896 13.139 6.91548 14.5664 6.37686L19.0633 8.88623C19.259 8.99472 19.4802 9.04868 19.7039 9.04248C19.893 9.04248 20.0836 9.04248 20.2727 9.04248C20.4963 9.04868 20.7176 8.99472 20.9133 8.88623L25.4195 6.37061C26.85 6.9051 28.1904 7.65489 29.3945 8.59405L29.4117 13.6253C29.4125 13.8586 29.4785 14.087 29.6023 14.2847C29.6992 14.4409 29.7945 14.5972 29.8836 14.7628C29.994 14.9614 30.156 15.1266 30.3523 15.2409L34.8211 17.7862C35.0554 19.2501 35.0581 20.7418 34.8289 22.2065H34.8352Z" fill="white"/>
</svg>
