<svg width="158" height="157" viewBox="0 0 158 157" fill="none" xmlns="http://www.w3.org/2000/svg">
<path d="M135.184 103.338L78.9691 136.12L22.7545 103.338C21.6414 102.784 20.3591 102.675 19.1684 103.033C17.9776 103.391 16.9681 104.189 16.3452 105.265C15.7223 106.341 15.5329 107.614 15.8154 108.825C16.098 110.036 16.8314 111.094 17.8662 111.783L76.525 146.001C77.2725 146.436 78.1222 146.666 78.9875 146.666C79.8527 146.666 80.7025 146.436 81.4499 146.001L140.109 111.783C140.672 111.464 141.167 111.037 141.563 110.525C141.96 110.014 142.252 109.429 142.421 108.804C142.589 108.179 142.633 107.527 142.547 106.885C142.462 106.243 142.25 105.625 141.924 105.066C141.598 104.507 141.164 104.018 140.648 103.628C140.131 103.237 139.542 102.954 138.915 102.793C138.288 102.632 137.635 102.598 136.995 102.692C136.354 102.785 135.739 103.005 135.184 103.338Z" fill="#F5F5F5"/>
<path d="M135.184 74.0089L78.9691 106.791L22.7545 74.0089C21.6414 73.4547 20.3591 73.3455 19.1684 73.7035C17.9776 74.0614 16.9681 74.8597 16.3452 75.9358C15.7223 77.0118 15.5329 78.2848 15.8154 79.4956C16.098 80.7065 16.8314 81.7641 17.8662 82.4533L76.525 116.671C77.2725 117.107 78.1222 117.336 78.9875 117.336C79.8527 117.336 80.7025 117.107 81.4499 116.671L140.109 82.4533C140.672 82.1345 141.167 81.707 141.563 81.1956C141.96 80.6842 142.252 80.0991 142.421 79.4742C142.589 78.8493 142.633 78.1971 142.547 77.5554C142.462 76.9137 142.25 76.2953 141.924 75.7361C141.598 75.1769 141.164 74.6881 140.648 74.298C140.131 73.9079 139.542 73.6242 138.915 73.4636C138.288 73.3029 137.635 73.2683 136.995 73.3619C136.354 73.4555 135.739 73.6754 135.184 74.0089Z" fill="#F5F5F5"/>
<path d="M17.8625 53.125L76.5213 87.3426C77.2687 87.7785 78.1185 88.0081 78.9837 88.0081C79.849 88.0081 80.6987 87.7785 81.4462 87.3426L140.105 53.125C140.843 52.6945 141.455 52.0781 141.881 51.3373C142.306 50.5964 142.53 49.7571 142.53 48.9028C142.53 48.0484 142.306 47.2091 141.881 46.4682C141.455 45.7274 140.843 45.111 140.105 44.6805L81.4462 10.4629C80.6987 10.027 79.849 9.79736 78.9837 9.79736C78.1185 9.79736 77.2687 10.027 76.5213 10.4629L17.8625 44.6805C17.1245 45.111 16.5123 45.7274 16.0869 46.4682C15.6614 47.2091 15.4375 48.0484 15.4375 48.9028C15.4375 49.7571 15.6614 50.5964 16.0869 51.3373C16.5123 52.0781 17.1245 52.6945 17.8625 53.125Z" fill="#F5F5F5"/>
</svg>
